# xmcd
#
# Track frame offsets: 
#        150
#        16961
#        38263
#        59001
#        79080
#        94716
#
# Disc length: 1538 seconds
#
# Revision: 0
# Processed by: cddbd v1.5.2PL0 Copyright (c) Steve Scherf et al.
# Submitted via: ExactAudioCopy v1.0b4
#
DISCID=3c060006
DTITLE=The Robert Cray Band - 4 Nights Of 40 Years Live (Bonus CD)
DYEAR=2015
DGENRE=Blues, Blues Rock
TTITLE0=I Guess I Showed Her
TTITLE1=Right Next Door (Because Of Me)
TTITLE2=Smoking Gun
TTITLE3=Still Around
TTITLE4=Too Many Cooks
TTITLE5=T-Bone Shuffle
EXTD=
EXTT0=
EXTT1=
EXTT2=
EXTT3=
EXTT4=
EXTT5=
PLAYORDER=
